<mxfile host="65bd71144e" scale="1" border="20">
    <diagram id="CX3G9Xh7dB3GCvSDx5av" name="第 1 页">
        <mxGraphModel dx="253" dy="150" grid="0" gridSize="10" guides="1" tooltips="1" connect="1" arrows="1" fold="1" page="1" pageScale="1" pageWidth="1169" pageHeight="827" background="#ffffff" math="0" shadow="0">
            <root>
                <mxCell id="0"/>
                <mxCell id="1" parent="0"/>
                <mxCell id="249" value="" style="edgeStyle=none;html=1;strokeColor=#000000;" parent="1" source="247" target="248" edge="1">
                    <mxGeometry relative="1" as="geometry"/>
                </mxCell>
                <mxCell id="247" value="前端系统" style="rounded=0;whiteSpace=wrap;html=1;" parent="1" vertex="1">
                    <mxGeometry x="124" y="231" width="120" height="60" as="geometry"/>
                </mxCell>
                <mxCell id="274" style="edgeStyle=none;html=1;exitX=0.5;exitY=0;exitDx=0;exitDy=0;entryX=0.5;entryY=1;entryDx=0;entryDy=0;strokeColor=#000000;fontFamily=Helvetica;fontSize=12;fontColor=default;" edge="1" parent="1" source="248" target="273">
                    <mxGeometry relative="1" as="geometry"/>
                </mxCell>
                <mxCell id="248" value="后端程序" style="rounded=0;whiteSpace=wrap;html=1;" parent="1" vertex="1">
                    <mxGeometry x="377" y="231" width="120" height="60" as="geometry"/>
                </mxCell>
                <mxCell id="250" value="&lt;font color=&quot;#000000&quot;&gt;预发布时间&lt;/font&gt;" style="text;html=1;align=center;verticalAlign=middle;resizable=0;points=[];autosize=1;strokeColor=none;fillColor=none;" parent="1" vertex="1">
                    <mxGeometry x="263" y="231" width="78" height="26" as="geometry"/>
                </mxCell>
                <mxCell id="251" value="Redis缓存" style="shape=cylinder3;whiteSpace=wrap;html=1;boundedLbl=1;backgroundOutline=1;size=15;fontColor=#000000;" parent="1" vertex="1">
                    <mxGeometry x="634" y="221" width="60" height="80" as="geometry"/>
                </mxCell>
                <mxCell id="252" value="" style="shape=flexArrow;endArrow=classic;startArrow=classic;html=1;strokeColor=#000000;fontColor=#000000;entryX=0;entryY=0.5;entryDx=0;entryDy=0;entryPerimeter=0;exitX=1;exitY=0.5;exitDx=0;exitDy=0;" parent="1" source="248" target="251" edge="1">
                    <mxGeometry width="100" height="100" relative="1" as="geometry">
                        <mxPoint x="484" y="456" as="sourcePoint"/>
                        <mxPoint x="584" y="356" as="targetPoint"/>
                    </mxGeometry>
                </mxCell>
                <mxCell id="265" value="计时器" style="ellipse;whiteSpace=wrap;html=1;rounded=0;" vertex="1" parent="1">
                    <mxGeometry x="397" y="361" width="80" height="80" as="geometry"/>
                </mxCell>
                <mxCell id="269" value="" style="shape=flexArrow;endArrow=classic;startArrow=classic;html=1;strokeColor=#000000;fontColor=#000000;entryX=0.5;entryY=0;entryDx=0;entryDy=0;exitX=0.5;exitY=1;exitDx=0;exitDy=0;" edge="1" parent="1" source="248" target="265">
                    <mxGeometry width="100" height="100" relative="1" as="geometry">
                        <mxPoint x="507" y="271" as="sourcePoint"/>
                        <mxPoint x="644" y="271" as="targetPoint"/>
                        <Array as="points"/>
                    </mxGeometry>
                </mxCell>
                <mxCell id="272" value="&lt;font color=&quot;#000000&quot;&gt;存储预发布时间&lt;/font&gt;" style="text;html=1;align=center;verticalAlign=middle;resizable=0;points=[];autosize=1;strokeColor=none;fillColor=none;" vertex="1" parent="1">
                    <mxGeometry x="514" y="228" width="102" height="26" as="geometry"/>
                </mxCell>
                <mxCell id="275" style="edgeStyle=none;html=1;exitX=1;exitY=0.5;exitDx=0;exitDy=0;strokeColor=#000000;fontFamily=Helvetica;fontSize=12;fontColor=#000000;entryX=0;entryY=0.5;entryDx=0;entryDy=0;entryPerimeter=0;" edge="1" parent="1" source="273" target="276">
                    <mxGeometry relative="1" as="geometry">
                        <mxPoint x="622.5520542689733" y="102.42857142857144" as="targetPoint"/>
                    </mxGeometry>
                </mxCell>
                <mxCell id="273" value="当前时间 &amp;gt; 预发布时间" style="rhombus;whiteSpace=wrap;html=1;rounded=0;strokeColor=default;fontFamily=Helvetica;fontSize=12;fontColor=default;fillColor=default;" vertex="1" parent="1">
                    <mxGeometry x="366.5" y="54" width="141" height="96" as="geometry"/>
                </mxCell>
                <mxCell id="276" value="数据库" style="shape=cylinder3;whiteSpace=wrap;html=1;boundedLbl=1;backgroundOutline=1;size=15;fontColor=#000000;" vertex="1" parent="1">
                    <mxGeometry x="634" y="62" width="60" height="80" as="geometry"/>
                </mxCell>
                <mxCell id="277" value="YES" style="text;html=1;align=center;verticalAlign=middle;resizable=0;points=[];autosize=1;strokeColor=none;fillColor=none;fontSize=12;fontFamily=Helvetica;fontColor=#000000;" vertex="1" parent="1">
                    <mxGeometry x="532" y="69" width="42" height="26" as="geometry"/>
                </mxCell>
            </root>
        </mxGraphModel>
    </diagram>
</mxfile>